# xmcd
#
# Track frame offsets: 
#        150
#        5352
#        14290
#        26857
#        50375
#        69257
#        94785
#        103752
#        158472
#        162672
#
# Disc length: 2527 seconds
#
# Revision: 0
# Processed by: cddbd v1.5.2PL0 Copyright (c) Steve Scherf et al.
# Submitted via: ExactAudioCopy v0.95b4
#
DISCID=7209dd0a
DTITLE=Stevie Ray Vaughan - Crawlin To Texas Disc 2 (The Power Station
DTITLE=March 1985)
DYEAR=1985
DGENRE=
TTITLE0=01 Testify #1
TTITLE1=02 Testify #2
TTITLE2=03 Look At Little Sister
TTITLE3=04 Instrumental
TTITLE4=05 Instrumental
TTITLE5=06 Worry Worry Worry
TTITLE6=07 Instrumental
TTITLE7=08 Instrumental
TTITLE8=09 Life Without You #3
TTITLE9=10 Life Without You # 4
EXTD=
EXTT0=
EXTT1=
EXTT2=
EXTT3=
EXTT4=
EXTT5=
EXTT6=
EXTT7=
EXTT8=
EXTT9=
PLAYORDER=
